<?xml version="1.0" encoding="utf-8"?>
<!-- Generator: Adobe Illustrator 16.0.0, SVG Export Plug-In . SVG Version: 6.00 Build 0)  -->
<!DOCTYPE svg PUBLIC "-//W3C//DTD SVG 1.1//EN" "http://www.w3.org/Graphics/SVG/1.1/DTD/svg11.dtd">
<svg version="1.1" id="Layer_1" xmlns="http://www.w3.org/2000/svg" xmlns:xlink="http://www.w3.org/1999/xlink" x="0px" y="0px"
	 width="310px" height="310px" viewBox="0 0 310 310" style="enable-background:new 0 0 310 310;" xml:space="preserve">
<style type="text/css">
<![CDATA[
	.st0{fill:#2C98D4;}
	.st1{fill:#FFFFFF;}
]]>
</style>
<path class="st1" d="M286.8,70.6C275.3,67,253.9,63,229.4,63c-47.5,0-70.2,15.8-82.1,50.1c-7.2,20.4-10.9,50.1-10.9,71.9
	c0,21.8,4.3,35.6,13.8,45.2c9.9,9.9,25.4,14.5,47.8,14.5c23.4,0,52.4-8.6,52.4-8.6l-6.2,21.1c-3,22.1-13.2,25.4-32.3,25.4h-11.5
	c-3,0-5.6,0.7-6.3,5.6l-2,14.8v1c0,3.6,3.3,5.5,5.3,5.5c6.2,0,6.6,0.1,20.8,0.1c34.6,0,58.3-11.5,63-51.1l19.4-155.9
	c0.7-5.3,1.3-9.9,1.3-13.8C302,80.5,299,74.9,286.8,70.6 M250.2,211c0,0-24.4,6.2-41.2,6.2c-13.5,0-22.4-2.3-27.7-8.6
	c-4.6-5-7-11.9-7-24.1c0-16.5,2.3-36.9,5.9-53.1c7.3-32.3,20.8-41.9,47.8-41.9c21.7,0,36.3,4.6,36.3,4.6L250.2,211z"/>
<path class="st0" d="M306.2,43.5c-1.5-11-5.2-19.2-10.4-25.7C284.1,3.9,262.5,0.1,238.9,0.1H9.4c-2.8,0-5.4,2.2-5.4,5v186.7
	c0.4,70,19.5,117.7,108.6,117.7H157c4.5,0,7.6-2.7,8.2-6.2c0.9-4.8,1.2-9.2,2.3-16.9c0.5-3.4-3.9-3.8-4.8-3.8h-50.3h-0.2
	c-61.9,0-69.7-35.3-69.7-93.1V29h184.9c58.7,0,70,21.6,73.9,21.6C305.1,50.6,306.5,45.8,306.2,43.5"/>
</svg>
